<?xml version="1.0" encoding="utf-8"?>
<!-- Generator: Adobe Illustrator 24.0.2, SVG Export Plug-In . SVG Version: 6.00 Build 0)  -->
<svg version="1.1" id="Capa_1" xmlns="http://www.w3.org/2000/svg" xmlns:xlink="http://www.w3.org/1999/xlink" x="0px" y="0px"
	 viewBox="0 0 197.9 90.7" style="enable-background:new 0 0 197.9 90.7;" xml:space="preserve">
<style type="text/css">
	.st0{fill:#FFFFFF;}
</style>
<g>
	<path class="st0" d="M73.5,90.7c-10.3,0-20-7.7-26.3-13.7c-6.4,6.1-15.8,13.7-26.2,13.7C7.7,90.7,0,83,0,69.7v-21h10.5v21
		c0,7.6,3,10.5,10.6,10.5c8.2,0,17.4-9.2,22.3-14.1c5.8-5.8,17.4-17.4,30.1-17.4c10.3,0,20,7.8,26.3,13.7
		c6.3-5.9,15.9-13.7,26.3-13.7c12.7,0,24.4,11.7,30,17.3l3.7,3.7l-3.7,3.7c-5.6,5.6-17.2,17.2-29.8,17.2c-0.1,0-0.2,0-0.3,0
		c-10.4-0.1-20.1-7.9-26.2-13.5C93.5,82.9,83.9,90.7,73.5,90.7z M54.8,69.7c5.1,4.7,12.3,10.5,18.7,10.5s13.7-5.8,18.7-10.5
		C87.2,64.9,80,59.1,73.5,59.1S59.9,64.9,54.8,69.7z M107.3,69.6c4.9,4.5,12.3,10.3,18.8,10.4c6.6,0,13.6-5.6,18.7-10.4
		c-5.1-4.7-12.3-10.5-18.7-10.5C119.6,59.1,112.4,64.9,107.3,69.6z"/>
	<rect y="22.4" class="st0" width="10.5" height="10.5"/>
	<path class="st0" d="M99.8,59.2c-3.2-3.1-6.7-5.4-10.5-8.3c0-6.2,0-50.9,0-50.9h10.5C99.8,1.7,99.7,47.3,99.8,59.2z"/>
	<path class="st0" d="M159.7,65.8c-2.9-3.2-6.9-6.6-10.5-10.1c0-5.6,0-55.7,0-55.7h10.5C159.7,1.5,159.6,55.1,159.7,65.8z"/>
	<path class="st0" d="M175.8,85.1c-1.1,0-2.2-0.2-3.3-0.7c-3.2-1.4-5.4-4.7-5.4-8c0-3.2,1.5-7.4,4.9-9.1c1.9-1,5.1-1.5,9.4,1.5
		l-1.1,1.6c-2.9-2-5.4-2.4-7.5-1.3c-2.5,1.3-3.9,4.8-3.9,7.4c0,2.5,1.8,5.2,4.3,6.3c1.4,0.6,4.1,1.2,6.9-1.3l1.3,1.4
		C179.8,84.3,177.8,85.1,175.8,85.1z"/>
	<path class="st0" d="M196.6,85.9c-0.8,0-1.9-0.2-2.7-1c-1-0.9-1.4-2.4-1.4-4.5V54h1.9v26.4c0,1.5,0.3,2.6,0.8,3.1
		c0.6,0.5,1.4,0.5,2.1,0.4c0.2,0,0.4,0,0.6,0v1.9c-0.1,0-0.3,0-0.4,0C197.2,85.9,196.9,85.9,196.6,85.9z"/>
	<rect x="159.3" y="85.3" class="st0" width="2.1" height="2.3"/>
</g>
</svg>
